<?xml version="1.0" encoding="UTF-8"?>
<svg width="1034.86" height="152.98" xmlns="http://www.w3.org/2000/svg" version="1.1" viewBox="0 0 1034.86 152.98">
    <defs>
        <style>
            .st0 {
            fill: #303030;
            }

            .st1 {
            fill: #00bb1d;
            }

            .st2 {
            fill: #fff;
            }
        </style>
    </defs>
    <rect class="st1" width="145.29" height="145.29" rx="27.65" ry="27.65"/>
    <path class="st2" d="M31.25,52.07v41.14c0,2.27,1.84,4.11,4.11,4.11h28.8l10.28,10.28h-41.14c-6.82,0-12.34-5.53-12.34-12.34v-45.25c0-6.82,5.53-12.34,12.34-12.34h14.4v-12.34c0-1.14.92-2.06,2.06-2.06l24.68,24.68h-39.08c-2.27,0-4.11,1.84-4.11,4.11M124.33,50.02c0-6.82-5.53-12.34-12.34-12.34h-41.14l10.28,10.28h28.8c2.27,0,4.11,1.84,4.11,4.11v41.14c0,2.27-1.84,4.11-4.11,4.11h-39.08l24.68,24.68c1.14,0,2.06-.92,2.06-2.06v-12.34h14.4c6.82,0,12.34-5.52,12.34-12.34v-45.25"/>
    <path class="st0" d="M276.04,95.73l17.92-68.6h19.74l-27.44,99.25h-19.88l-22.68-70.69-22.68,70.69h-20.16l-27.58-99.25h20.44l18.2,68.31,21.98-68.31h20.02l22.12,68.6h0ZM323.01,65.77c6.86-6.9,15.47-10.36,25.83-10.36s18.97,3.46,25.83,10.36c6.86,6.91,10.29,15.63,10.29,26.18s-3.43,19.27-10.29,26.18c-6.86,6.91-15.47,10.36-25.83,10.36s-18.97-3.45-25.83-10.36-10.29-15.63-10.29-26.18,3.43-19.27,10.29-26.18ZM336.45,106.37c3.4,3.45,7.54,5.18,12.39,5.18s8.98-1.73,12.39-5.18,5.11-8.26,5.11-14.42-1.7-10.96-5.11-14.42c-3.41-3.45-7.54-5.18-12.39-5.18s-8.98,1.73-12.39,5.18c-3.41,3.46-5.11,8.26-5.11,14.42s1.7,10.97,5.11,14.42ZM439.54,57.23v18.76c-1.87-.37-3.74-.56-5.6-.56-5.32,0-9.62,1.52-12.88,4.55-3.27,3.03-4.9,8-4.9,14.91v31.5h-18.62V57.52h18.06v10.22c3.36-7.18,9.89-10.78,19.6-10.78,1.02,0,2.47.09,4.34.28h0ZM445.14,107.2l15.96-3.5c.19,2.99,1.38,5.49,3.57,7.49,2.19,2.01,5.2,3.01,9.03,3.01,2.89,0,5.13-.65,6.72-1.96s2.38-2.94,2.38-4.9c0-3.45-2.48-5.69-7.42-6.72l-9.1-2.1c-6.44-1.4-11.27-3.92-14.49-7.56s-4.83-7.98-4.83-13.02c0-6.25,2.45-11.57,7.35-15.96s11.04-6.58,18.41-6.58c4.66,0,8.77.68,12.32,2.03s6.3,3.08,8.26,5.18c1.96,2.1,3.45,4.22,4.48,6.37,1.02,2.15,1.68,4.25,1.96,6.3l-15.54,3.5c-.38-2.42-1.47-4.57-3.29-6.44s-4.5-2.8-8.05-2.8c-2.43,0-4.5.65-6.23,1.96-1.73,1.31-2.59,2.94-2.59,4.9,0,3.36,2.1,5.41,6.3,6.16l9.8,2.1c6.62,1.4,11.69,3.97,15.19,7.7s5.25,8.21,5.25,13.44c0,6.16-2.34,11.48-7,15.96s-11.25,6.72-19.74,6.72c-4.85,0-9.19-.73-13.02-2.17-3.83-1.45-6.79-3.31-8.89-5.6-2.1-2.29-3.69-4.57-4.76-6.86-1.07-2.28-1.75-4.5-2.03-6.65h0ZM532.07,85.93v40.46h-18.62V25.04h18.62v38.22c4.2-5.04,10.4-7.56,18.62-7.56s14.77,2.54,19.11,7.63,6.51,11.64,6.51,19.67v43.4h-18.62v-40.18c0-4.1-1.05-7.42-3.15-9.94-2.1-2.52-5.3-3.78-9.59-3.78-3.83,0-6.88,1.26-9.17,3.78s-3.52,5.74-3.71,9.66h0ZM590.87,34.97c0-3.17,1.12-5.9,3.36-8.19s4.94-3.43,8.12-3.43,5.88,1.12,8.12,3.36,3.36,4.99,3.36,8.26c0,3.08-1.12,5.74-3.36,7.98s-4.95,3.36-8.12,3.36-5.88-1.12-8.12-3.36-3.36-4.9-3.36-7.98ZM611.73,126.38h-18.62V57.51h18.62v68.87h0ZM648.12,152.98h-18.62V57.51h18.06v8.4c1.68-2.8,4.39-5.16,8.12-7.07s8.07-2.87,13.02-2.87c9.8,0,17.54,3.34,23.24,10.01,5.69,6.67,8.54,15.28,8.54,25.83s-3.01,19.23-9.03,26.04-13.84,10.22-23.45,10.22-15.77-2.8-19.88-8.4v33.32h0ZM677.31,106.16c3.22-3.5,4.83-8.24,4.83-14.21s-1.61-10.69-4.83-14.14-7.3-5.18-12.25-5.18-9.05,1.75-12.32,5.25-4.9,8.19-4.9,14.07,1.63,10.59,4.9,14.14c3.26,3.55,7.37,5.32,12.32,5.32s9.03-1.75,12.25-5.25ZM776.35,45.47h-31.36v80.91h-19.46V45.47h-31.36v-18.34h82.17v18.34h.01ZM775.44,65.77c6.86-6.9,15.47-10.36,25.83-10.36s18.97,3.46,25.83,10.36c6.86,6.91,10.29,15.63,10.29,26.18s-3.43,19.27-10.29,26.18c-6.86,6.91-15.47,10.36-25.83,10.36s-18.97-3.45-25.83-10.36c-6.86-6.91-10.29-15.63-10.29-26.18s3.43-19.27,10.29-26.18ZM788.88,106.37c3.4,3.45,7.54,5.18,12.39,5.18s8.98-1.73,12.39-5.18c3.41-3.45,5.11-8.26,5.11-14.42s-1.7-10.96-5.11-14.42c-3.41-3.45-7.54-5.18-12.39-5.18s-8.98,1.73-12.39,5.18c-3.41,3.46-5.11,8.26-5.11,14.42s1.7,10.97,5.11,14.42ZM855.09,65.77c6.86-6.9,15.47-10.36,25.83-10.36s18.97,3.46,25.83,10.36c6.86,6.91,10.29,15.63,10.29,26.18s-3.43,19.27-10.29,26.18c-6.86,6.91-15.47,10.36-25.83,10.36s-18.97-3.45-25.83-10.36c-6.86-6.91-10.29-15.63-10.29-26.18s3.43-19.27,10.29-26.18ZM868.53,106.37c3.4,3.45,7.54,5.18,12.39,5.18s8.98-1.73,12.39-5.18c3.41-3.45,5.11-8.26,5.11-14.42s-1.7-10.96-5.11-14.42c-3.41-3.45-7.54-5.18-12.39-5.18s-8.98,1.73-12.39,5.18c-3.41,3.46-5.11,8.26-5.11,14.42s1.7,10.97,5.11,14.42ZM948.25,126.38h-18.62V25.03h18.62v101.35ZM960.15,107.2l15.96-3.5c.19,2.99,1.38,5.49,3.57,7.49,2.19,2.01,5.2,3.01,9.03,3.01,2.89,0,5.13-.65,6.72-1.96s2.38-2.94,2.38-4.9c0-3.45-2.48-5.69-7.42-6.72l-9.1-2.1c-6.44-1.4-11.27-3.92-14.49-7.56s-4.83-7.98-4.83-13.02c0-6.25,2.45-11.57,7.35-15.96s11.04-6.58,18.41-6.58c4.66,0,8.77.68,12.32,2.03s6.3,3.08,8.26,5.18c1.96,2.1,3.45,4.22,4.48,6.37,1.02,2.15,1.68,4.25,1.96,6.3l-15.54,3.5c-.38-2.42-1.47-4.57-3.29-6.44s-4.5-2.8-8.05-2.8c-2.43,0-4.5.65-6.23,1.96-1.73,1.31-2.59,2.94-2.59,4.9,0,3.36,2.1,5.41,6.3,6.16l9.8,2.1c6.62,1.4,11.69,3.97,15.19,7.7s5.25,8.21,5.25,13.44c0,6.16-2.34,11.48-7,15.96s-11.25,6.72-19.74,6.72c-4.85,0-9.19-.73-13.02-2.17-3.83-1.45-6.79-3.31-8.89-5.6-2.1-2.29-3.69-4.57-4.76-6.86-1.07-2.28-1.75-4.5-2.03-6.65h0ZM1025.98,54.47c-1.22,0-2.37-.23-3.44-.7-1.07-.46-2.02-1.1-2.83-1.91-.81-.81-1.45-1.76-1.92-2.83-.46-1.07-.69-2.22-.69-3.44s.23-2.37.69-3.44,1.1-2.01,1.92-2.83c.81-.81,1.76-1.45,2.83-1.91,1.07-.46,2.22-.7,3.44-.7s2.38.23,3.45.7c1.07.46,2.02,1.1,2.83,1.91.81.81,1.45,1.76,1.91,2.83.46,1.07.69,2.22.69,3.44s-.23,2.37-.69,3.44-1.09,2.01-1.91,2.83c-.81.81-1.76,1.45-2.83,1.91-1.07.46-2.22.7-3.45.7ZM1025.98,52.81c1.33,0,2.54-.33,3.63-.98s1.95-1.52,2.61-2.61c.65-1.09.98-2.3.98-3.63s-.33-2.54-.98-3.63-1.52-1.96-2.61-2.61-2.3-.98-3.63-.98-2.53.33-3.62.98c-1.09.65-1.96,1.52-2.61,2.61-.64,1.09-.97,2.3-.97,3.63s.32,2.54.97,3.63c.65,1.09,1.52,1.96,2.61,2.61,1.09.65,2.3.98,3.62.98ZM1022.93,49.64v-8.17h3.93c.41,0,.82.1,1.22.3.4.2.72.49.98.86.25.38.38.84.38,1.39s-.13,1.04-.39,1.44-.59.71-1,.93-.83.33-1.27.33h-3.03v-1.14h2.65c.38,0,.73-.13,1.02-.4.29-.27.44-.66.44-1.15s-.15-.87-.44-1.09c-.3-.22-.63-.33-.99-.33h-2.04v7.04h-1.46,0ZM1028.16,49.64l-2-3.81h1.59l2.03,3.81h-1.62Z"/>
</svg>