<?xml version="1.0" encoding="utf-8"?>
<!-- Generator: Adobe Illustrator 15.1.0, SVG Export Plug-In . SVG Version: 6.00 Build 0)  -->
<!DOCTYPE svg PUBLIC "-//W3C//DTD SVG 1.1//EN" "http://www.w3.org/Graphics/SVG/1.1/DTD/svg11.dtd">
<svg version="1.1" id="Layer_1" xmlns="http://www.w3.org/2000/svg" xmlns:xlink="http://www.w3.org/1999/xlink" x="0px" y="0px"
	 width="257.043px" height="85.728px" viewBox="0 0 257.043 85.728" enable-background="new 0 0 257.043 85.728"
	 xml:space="preserve">
<g>
	<g>
		<path fill="#A9914D" d="M65.557,2.502h15.816v79.716H65.557V2.502z M247.868,24.014c2.531,0,4.695-0.895,6.486-2.691
			c1.797-1.793,2.689-3.951,2.689-6.482c0-2.527-0.893-4.691-2.689-6.482c-1.791-1.794-3.955-2.689-6.486-2.689
			c-2.527,0-4.693,0.896-6.482,2.689c-1.795,1.791-2.689,3.955-2.689,6.482c0,2.531,0.895,4.689,2.689,6.482
			C243.174,23.119,245.34,24.014,247.868,24.014z M239.965,82.218h15.811V30.973h-15.811V82.218z M141.932,56.595
			c0,2.734-0.268,4.953-0.268,4.953h-36.426c0.635,3.025,2.006,5.434,4.111,7.225c2.111,1.797,4.713,2.691,7.801,2.691
			c2.607,0,4.797-0.582,6.598-1.74c1.789-1.156,3.354-2.654,4.688-4.486l11.074,8.125c-2.531,3.232-5.732,5.727-9.594,7.484
			c-3.871,1.758-7.877,2.633-12.018,2.633c-3.941,0-7.654-0.633-11.129-1.898c-3.48-1.264-6.504-3.07-9.07-5.428
			c-2.568-2.354-4.586-5.184-6.062-8.484c-1.479-3.309-2.217-6.996-2.217-11.074c0-14.838,10.871-27.578,28.479-27.064
			C134.698,30.023,141.932,42.861,141.932,56.595z M126.684,50.796c0.068-2.672-0.828-4.957-2.707-6.853
			c-1.877-1.898-4.293-2.851-7.254-2.851c-1.812,0-3.402,0.282-4.766,0.852c-1.377,0.556-2.547,1.278-3.523,2.153
			c-0.973,0.881-1.734,1.902-2.271,3.061c-0.549,1.156-0.852,2.375-0.924,3.639H126.684z M212.354,29.704
			c-9.678,0.235-14.564,5.873-16.393,9.175c-1.414-3.16-6.287-9.625-16.406-9.175c-10.281,0.466-13.898,7.243-14.393,8.228h-0.207
			v-6.959H149.77v51.246h15.824V54.533c0-8.266,4.852-10.908,9-10.908c5.295,0,7.545,3.763,7.545,9.919v28.674h15.824V54.533
			c0-8.266,4.854-10.908,9.008-10.908c5.289,0,7.539,3.763,7.539,9.919v28.674h15.82V48.865
			C230.331,38.168,225.081,29.402,212.354,29.704z"/>
	</g>
	<g>
		<g>
			<g>
				<linearGradient id="SVGID_1_" gradientUnits="userSpaceOnUse" x1="46.6763" y1="81.2798" x2="50.2201" y2="55.8288">
					<stop  offset="0" style="stop-color:#91C24F"/>
					<stop  offset="0.1597" style="stop-color:#9AC54E"/>
					<stop  offset="0.663" style="stop-color:#AFCC4B"/>
					<stop  offset="1" style="stop-color:#B6CF4A"/>
				</linearGradient>
				<path fill-rule="evenodd" clip-rule="evenodd" fill="url(#SVGID_1_)" d="M57.318,65.501c2.884,9.729-3.575,20.227-3.575,20.227
					S42.6,80.458,39.704,70.736c-2.888-9.732,3.571-20.238,3.571-20.238S54.419,55.773,57.318,65.501z"/>
				<linearGradient id="SVGID_2_" gradientUnits="userSpaceOnUse" x1="36.9429" y1="30.314" x2="52.4081" y2="0.0279">
					<stop  offset="0" style="stop-color:#91C24F"/>
					<stop  offset="0.1597" style="stop-color:#9AC54E"/>
					<stop  offset="0.663" style="stop-color:#AFCC4B"/>
					<stop  offset="1" style="stop-color:#B6CF4A"/>
				</linearGradient>
				<path fill-rule="evenodd" clip-rule="evenodd" fill="url(#SVGID_2_)" d="M52.148,0c0,0-10.864,3.034-14.958,11.361
					c-4.103,8.327,0.1,18.797,0.1,18.797s10.867-3.036,14.969-11.37C56.356,10.468,52.148,0,52.148,0z"/>
			</g>
		</g>
		<path fill="#A9914D" d="M49.838,60.88c-1.33-4.484-3.67-9.727-7.803-14.432c-3.104-3.498-7.144-6.66-11.965-8.48
			c5.72-4.212,10.097-9.043,12.887-13.551c2.654-4.195,4.068-7.969,4.775-10.609c0.711-2.65,0.766-4.182,0.475-4.264
			c-0.727-0.26-2.473,5.537-8.197,12.842c-2.865,3.625-6.809,7.512-11.836,10.954c-3.596,2.456-7.836,4.771-12.371,6.556V2.562H0
			v79.657h15.803V45.689c3.311-1.242,6.397-2.724,9.229-4.388c5.22,1.047,9.983,4.207,13.529,7.849
			c3.807,3.955,6.303,8.523,7.941,12.576c3.502,8.441,4.182,14.344,4.83,14.318C51.821,76.101,52.608,70.22,49.838,60.88z"/>
	</g>
</g>
<g id="Logo">
	<g id="leaf_3">
	</g>
</g>
</svg>
