<svg xmlns="http://www.w3.org/2000/svg" xmlns:xlink="http://www.w3.org/1999/xlink" id="Layer_1" data-name="Layer 1" viewBox="0 0 1080 400"><defs><style>      .cls-1, .cls-2 {        fill: none;      }      .cls-3, .cls-4 {        fill: #008ab7;      }      .cls-4 {        fill-rule: evenodd;      }      .cls-2 {        clip-path: url(#clippath);      }    </style><clipPath id="clippath"><rect class="cls-1" x="228.56" y="142.07" width="30" height="43.98"></rect></clipPath></defs><g><path class="cls-4" d="m255.21,206.19c0-5.5-1.4-13.78-11.54-13.78-9.45,0-11.4,8.28-11.4,13.78,0,25.1-.16,9.71-.16,17.09-.39,35.14-27.1,62.21-61.68,62.94-33.25.71-61.7-26.06-63.07-60.7-.96-24.34-.69-48.77-.07-73.13.57-22.57,17.68-38.42,39.63-38.05,21.51.36,37.31,16.36,37.63,38.75.31,21.87.17,43.74.05,65.61-.06,11.74-4.48,17.24-13.13,17.05-8.34-.19-12.62-5.92-12.7-17.7-.14-20.08-.13-40.16-.02-60.24.04-8.31-1.57-16.01-11.55-15.89-9.41.11-10.8,7.7-10.78,15.49.06,21.87-.22,43.75.11,65.61.32,20.66,15.39,35.86,34.99,36.01,19.65.15,35.5-14.76,36-35.24.59-24.37.77-48.78-.03-73.13-1.11-34.09-28.81-59.91-62.56-59.46-33.07.44-59.43,26.8-60,60.68-.42,24.73-.5,49.49.02,74.22.97,46.6,38.98,82.97,85.81,82.71,45.8-.26,83.38-37.27,84.4-83.3.3-13.62.06-1.73.06-19.31Z"></path><g class="cls-2"><path class="cls-3" d="m257.96,166.36c-.27-2.11-.84-4.13-1.6-6.03-.75-1.9-1.7-3.68-2.77-5.35-1.06-1.67-2.25-3.22-3.53-4.68-.65-.73-1.31-1.44-2-2.12-.35-.34-.7-.68-1.07-1.02l-.56-.51-.31-.26-.36-.3s-2.19-2-5.68-4.03c.55,4.04-3.49,9.98-3.71,10.42-.25.5-.61,1.07-1,1.7l-1.32,1.99c-.94,1.4-1.94,2.94-2.86,4.66-.45.87-.89,1.77-1.26,2.74-.38.97-.71,1.98-.94,3.05-.24,1.06-.38,2.17-.41,3.29-.02,1.12.08,2.24.3,3.31.22,1.08.56,2.11,1,3.06.43.95.94,1.84,1.52,2.64.59.8,1.19,1.55,1.87,2.21.67.66,1.35,1.29,2.08,1.83.71.56,1.47,1.05,2.24,1.51.39.23.79.45,1.18.65.39.2.8.38,1.21.57l-1.17-2.36c-.37-.77-.73-1.54-1.05-2.3-.64-1.52-1.16-3.01-1.44-4.44-.15-.71-.23-1.41-.26-2.07-.02-.66,0-1.29.09-1.89.19-1.19.58-2.26,1.15-3.32.28-.53.61-1.06.98-1.6.38-.53.77-1.09,1.22-1.64.43-.56.92-1.12,1.41-1.71l1.58-1.83c.55-.64,1.11-1.31,1.69-2.05.04-.04.07-.08.09-.12.21.24.42.49.62.75.92,1.15,1.77,2.33,2.53,3.53.75,1.21,1.39,2.43,1.9,3.69.5,1.26.87,2.54,1.06,3.88.17,1.34.19,2.75-.04,4.21-.04.37-.12.74-.2,1.11-.09.37-.18.75-.29,1.13-.2.77-.49,1.52-.79,2.3-.16.39-.33.77-.5,1.16-.17.39-.37.78-.56,1.16-.38.79-.82,1.56-1.25,2.38.86-.33,1.68-.73,2.49-1.19.8-.46,1.58-.99,2.32-1.58.75-.59,1.45-1.25,2.11-1.98.67-.72,1.27-1.52,1.82-2.39.55-.86,1.02-1.79,1.41-2.76.39-.98.7-2,.91-3.05.41-2.1.46-4.29.18-6.39h0Zm0,0"></path></g></g><g><path class="cls-3" d="m369.18,223.31c.84,1.26.98,2.38-.14,3.64-2.52,2.94-10.5,6.86-22.4,6.86-25.48,0-32.48-17.92-32.48-38.22s7.14-38.08,33.88-38.08c9.38,0,18.2,4.34,21,6.86.98.84,1.4,1.82.14,3.64l-2.94,4.48c-.7.98-2.38.7-3.64.28-2.8-.98-7.7-3.5-13.86-3.5-13.86,0-17.78,12.74-17.78,26.46s4.06,26.32,17.64,26.32c5.46,0,9.66-1.96,14-3.5,1.54-.56,2.94-.7,3.64.28l2.94,4.48Z"></path><path class="cls-3" d="m431.06,232.13c-1.96,0-2.8-.84-2.8-2.8v-33.32c0-21.84-4.9-26.6-12.88-26.6-10.64,0-16.66,6.3-16.66,22.4v37.52c0,1.96-.84,2.8-2.8,2.8h-11.2c-1.96,0-2.8-.84-2.8-2.8v-98c0-1.96.84-2.8,2.8-2.8h11.2c1.96,0,2.8.84,2.8,2.8v36.54h.28c2.94-5.32,8.4-10.22,18.76-10.22,14.84,0,27.3,9.24,27.3,38.36v33.32c0,1.96-.84,2.8-2.8,2.8h-11.2Z"></path><path class="cls-3" d="m510.3,232.13c-1.96,0-2.38-.84-2.8-2.8l-1.4-5.74h-.28c-3.36,6.58-11.48,10.22-18.62,10.22-15.54,0-28.14-9.94-28.14-27.44v-44.24c0-1.96.84-2.8,2.66-2.8h11.48c1.82,0,2.66.84,2.66,2.8v39.48c0,10.78,3.08,20.44,12.74,20.44s14.7-7.42,14.7-21.84v-38.08c0-1.96.84-2.8,2.8-2.8h11.2c1.96,0,2.8.84,2.8,2.8v67.2c0,1.96-.84,2.8-2.8,2.8h-7Z"></path><path class="cls-3" d="m536.9,232.13c-1.96,0-2.8-.84-2.8-2.8v-67.2c0-1.96.84-2.8,2.8-2.8h7c1.96,0,1.96.98,2.8,2.8l1.4,5.32h.28c6.02-9.24,13.02-9.1,19.04-9.24,1.96,0,2.52.14,2.52,2.1v10.5c0,3.64-3.08,2.1-5.74,2.1-8.68,0-13.3,4.76-13.3,13.58v42.84c0,1.96-.84,2.8-2.8,2.8h-11.2Z"></path><path class="cls-3" d="m631.54,223.31c.84,1.26.98,2.38-.14,3.64-2.52,2.94-10.5,6.86-22.4,6.86-25.48,0-32.48-17.92-32.48-38.22s7.14-38.08,33.88-38.08c9.38,0,18.2,4.34,21,6.86.98.84,1.4,1.82.14,3.64l-2.94,4.48c-.7.98-2.38.7-3.64.28-2.8-.98-7.7-3.5-13.86-3.5-13.86,0-17.78,12.74-17.78,26.46s4.06,26.32,17.64,26.32c5.46,0,9.66-1.96,14-3.5,1.54-.56,2.94-.7,3.64.28l2.94,4.48Z"></path><path class="cls-3" d="m693.42,232.13c-1.96,0-2.8-.84-2.8-2.8v-33.32c0-21.84-4.9-26.6-12.88-26.6-10.64,0-16.66,6.3-16.66,22.4v37.52c0,1.96-.84,2.8-2.8,2.8h-11.2c-1.96,0-2.8-.84-2.8-2.8v-98c0-1.96.84-2.8,2.8-2.8h11.2c1.96,0,2.8.84,2.8,2.8v36.54h.28c2.94-5.32,8.4-10.22,18.76-10.22,14.84,0,27.3,9.24,27.3,38.36v33.32c0,1.96-.84,2.8-2.8,2.8h-11.2Z"></path><path class="cls-3" d="m778.96,232.13c-1.96,0-2.38-.84-2.8-2.8l-1.4-5.88h-.28c-5.74,7.28-14.14,10.5-24.78,10.5-15.96,0-29.68-9.1-29.68-37.94s13.86-38.36,30.1-38.36c11.9,0,18.06,4.9,21.56,10.22h.28v-36.54c0-1.96.84-2.8,2.8-2.8h11.2c1.96,0,2.8.84,2.8,2.8v98c0,1.96-.84,2.8-2.8,2.8h-7Zm-7-36.12c0-19.04-7.14-26.6-19.46-26.6-9.66,0-15.68,4.76-15.68,26.6s5.6,26.18,15.82,26.18c12.46,0,19.32-7.56,19.32-26.18Z"></path><path class="cls-3" d="m859.18,223.31c.84,1.26.98,2.38-.14,3.64-2.66,3.08-12.88,6.86-24.78,6.86-25.9,0-32.9-17.78-32.9-37.38,0-21.56,8.4-38.92,31.08-38.92,16.94,0,29.96,9.8,29.96,30.1,0,10.78-3.64,14-15.26,14h-28.7c1.12,11.76,5.32,20.44,17.64,20.44,5.46,0,10.78-1.68,16.52-3.5,2.8-.84,3.22-.28,3.64.28l2.94,4.48Zm-19.18-33.46c4.34,0,5.46-.56,5.46-4.76,0-8.26-4.9-15.82-12.32-15.82-10.22,0-13.86,9.52-14.7,20.58h21.56Z"></path><path class="cls-3" d="m889.84,200.35c-10.5-3.22-14.84-11.06-14.84-20.3,0-12.88,9.1-22.54,26.18-22.54,11.9,0,21.28,3.78,24.36,6.86.56.56,1.4,1.54,0,3.64l-2.94,4.48c-.56,1.26-2.38.7-3.64.28-5.04-1.82-10.22-3.5-16.24-3.5-8.26,0-11.76,3.64-11.76,9.1,0,3.22,1.54,5.74,5.46,6.86l16.38,4.76c12.18,3.5,15.96,10.22,15.96,21.14,0,15.12-13.72,22.68-29.12,22.68-11.76,0-22.54-3.22-25.2-6.86-.98-1.4-.98-2.38-.14-3.64l2.94-4.48c.7-.98,2.38-.7,3.64-.28,5.46,1.82,11.06,3.5,17.92,3.5,11.62,0,14-4.9,14-9.38s-2.8-6.16-10.92-8.68l-12.04-3.64Z"></path><path class="cls-3" d="m985.46,232.13c-1.96,0-3.36-.7-4.48-2.24l-22.96-29.54v28.98c0,1.96-.84,2.8-2.8,2.8h-11.06c-1.96,0-2.8-.84-2.8-2.8v-98c0-1.96.84-2.8,2.8-2.8h11.06c1.96,0,2.8.84,2.8,2.8v59.92l23.52-29.68c1.12-1.54,2.52-2.24,4.48-2.24h11.62c1.96,0,2.38.84,1.12,2.24l-27.86,32.9,29.4,35.42c1.26,1.4.84,2.24-1.12,2.24h-13.72Z"></path></g></svg>