<svg xmlns="http://www.w3.org/2000/svg" viewBox="0 0 512 512">
  <defs>
    <linearGradient id="bg" x1="0%" y1="0%" x2="100%" y2="100%">
      <stop offset="0%" style="stop-color:#4f46e5"/>
      <stop offset="100%" style="stop-color:#3730a3"/>
    </linearGradient>
  </defs>
  <!-- Rounded square background -->
  <rect width="512" height="512" rx="96" ry="96" fill="url(#bg)"/>
  <!-- Shepherd's staff (crook) -->
  <path d="M 280 100 C 280 100 330 100 340 140 C 350 180 310 200 280 200"
        stroke="white" stroke-width="28" fill="none" stroke-linecap="round"/>
  <!-- Staff vertical line -->
  <line x1="280" y1="140" x2="280" y2="400" stroke="white" stroke-width="28" stroke-linecap="round"/>
  <!-- Cross horizontal bar -->
  <line x1="220" y1="220" x2="340" y2="220" stroke="white" stroke-width="28" stroke-linecap="round"/>
  <!-- Small heart at bottom -->
  <path d="M 256 430 C 256 430 226 410 226 395 C 226 385 236 378 246 383 L 256 393 L 266 383 C 276 378 286 385 286 395 C 286 410 256 430 256 430 Z"
        fill="rgba(255,255,255,0.7)"/>
</svg>
