<?xml version="1.0" encoding="UTF-8" standalone="no"?>
<!DOCTYPE svg PUBLIC "-//W3C//DTD SVG 1.1//EN" "http://www.w3.org/Graphics/SVG/1.1/DTD/svg11.dtd">
<svg width="100%" height="100%" viewBox="0 0 730 237" version="1.1" xmlns="http://www.w3.org/2000/svg" xmlns:xlink="http://www.w3.org/1999/xlink" xml:space="preserve" xmlns:serif="http://www.serif.com/" style="fill-rule:evenodd;clip-rule:evenodd;stroke-linejoin:round;stroke-miterlimit:2;">
    <g transform="matrix(1,0,0,1,-30.3475,-45.53)">
        <path d="M441.13,230.13L411.27,187.32C410.02,187.46 408.14,187.53 405.63,187.53L372.64,187.53L372.64,230.13L345.49,230.13L345.49,83.95L405.63,83.95C418.3,83.95 429.33,86.04 438.73,90.21C448.13,94.39 455.33,100.37 460.35,108.17C465.36,115.97 467.87,125.22 467.87,135.94C467.87,146.66 465.19,156.41 459.83,164.34C454.47,172.28 446.78,178.19 436.76,182.09L470.38,230.12L441.15,230.12L441.13,230.13ZM431.31,114.44C425.18,109.43 416.2,106.92 404.37,106.92L372.63,106.92L372.63,165.18L404.37,165.18C416.2,165.18 425.18,162.64 431.31,157.56C437.44,152.48 440.5,145.27 440.5,135.95C440.5,126.63 437.44,119.45 431.31,114.44Z" style="fill:rgb(255,88,93);fill-rule:nonzero;"/>
        <path d="M731.72,102.55C728.58,99.62 727.01,95.96 727.01,91.59C727.01,87.22 728.58,83.57 731.72,80.63C734.86,77.69 738.75,76.23 743.4,76.23C748.05,76.23 751.93,77.63 755.07,80.43C758.21,83.23 759.78,86.75 759.78,90.98C759.78,95.49 758.24,99.28 755.17,102.35C752.1,105.42 748.17,106.96 743.39,106.96C738.61,106.96 734.85,105.49 731.71,102.56L731.72,102.55Z" style="fill:rgb(255,88,93);fill-rule:nonzero;"/>
        <rect x="730.54" y="120.43" width="25.72" height="109.68" style="fill:rgb(255,88,93);"/>
        <g>
            <path d="M345.55,281.43L355.54,255.81L360.01,255.81L369.93,281.43L364.99,281.43L359.5,266.86C359.38,266.57 359.21,266.1 359.01,265.47C358.8,264.84 358.58,264.15 358.33,263.4C358.08,262.65 357.86,261.96 357.67,261.31C357.48,260.66 357.33,260.19 357.23,259.9L358.15,259.86C358,260.35 357.83,260.9 357.64,261.51C357.45,262.12 357.24,262.75 357.02,263.41C356.8,264.07 356.59,264.7 356.38,265.31C356.17,265.92 355.98,266.47 355.81,266.96L350.32,281.42L345.56,281.42L345.55,281.43ZM350.09,275.57L351.74,271.43L363.42,271.43L365.18,275.57L350.09,275.57Z" style="fill:rgb(255,88,93);fill-rule:nonzero;"/>
            <path d="M384.72,281.43L384.72,255.81L395.37,255.81C396.83,255.81 398.16,256.17 399.34,256.87C400.52,257.58 401.47,258.54 402.18,259.76C402.89,260.98 403.24,262.35 403.24,263.86C403.24,265.37 402.88,266.78 402.18,268.01C401.47,269.24 400.53,270.23 399.34,270.96C398.16,271.69 396.83,272.06 395.37,272.06L389.48,272.06L389.48,281.43L384.72,281.43ZM389.48,267.67L395.04,267.67C395.65,267.67 396.21,267.5 396.71,267.16C397.21,266.82 397.61,266.37 397.92,265.81C398.23,265.25 398.38,264.61 398.38,263.91C398.38,263.21 398.23,262.57 397.92,262.02C397.61,261.47 397.21,261.03 396.71,260.7C396.21,260.37 395.65,260.2 395.04,260.2L389.48,260.2L389.48,267.67Z" style="fill:rgb(255,88,93);fill-rule:nonzero;"/>
            <path d="M418.54,281.65C416.51,281.65 414.71,281.22 413.12,280.35C411.53,279.49 410.28,278.29 409.37,276.76C408.45,275.24 408,273.51 408,271.58L408,255.77L412.8,255.77L412.8,271.25C412.8,272.4 413.06,273.42 413.59,274.31C414.12,275.2 414.82,275.92 415.7,276.45C416.58,276.99 417.53,277.26 418.55,277.26C419.67,277.26 420.69,276.99 421.59,276.45C422.49,275.91 423.2,275.2 423.73,274.31C424.26,273.42 424.52,272.4 424.52,271.25L424.52,255.77L429.13,255.77L429.13,271.58C429.13,273.51 428.67,275.24 427.76,276.76C426.84,278.29 425.59,279.48 424.01,280.35C422.42,281.22 420.61,281.65 418.56,281.65L418.54,281.65Z" style="fill:rgb(255,88,93);fill-rule:nonzero;"/>
            <path d="M443.84,281.79C442.35,281.79 440.98,281.6 439.74,281.22C438.5,280.84 437.37,280.27 436.37,279.52C435.37,278.77 434.48,277.85 433.7,276.77L436.81,273.26C438.01,274.92 439.18,276.07 440.32,276.7C441.47,277.34 442.76,277.65 444.2,277.65C445.03,277.65 445.79,277.52 446.47,277.27C447.15,277.01 447.69,276.66 448.08,276.21C448.47,275.76 448.66,275.24 448.66,274.65C448.66,274.23 448.58,273.85 448.42,273.5C448.26,273.15 448.02,272.83 447.71,272.55C447.39,272.27 447,272.01 446.54,271.76C446.07,271.52 445.55,271.31 444.96,271.14C444.38,270.97 443.73,270.81 443.02,270.66C441.68,270.39 440.51,270.03 439.51,269.58C438.51,269.13 437.67,268.57 436.98,267.9C436.3,267.23 435.79,266.47 435.48,265.63C435.17,264.79 435.01,263.83 435.01,262.76C435.01,261.69 435.25,260.7 435.72,259.8C436.19,258.9 436.85,258.12 437.68,257.46C438.51,256.8 439.47,256.29 440.57,255.92C441.67,255.56 442.85,255.37 444.12,255.37C445.56,255.37 446.85,255.54 447.98,255.88C449.12,256.22 450.12,256.73 450.98,257.4C451.85,258.07 452.56,258.88 453.12,259.83L449.97,262.94C449.48,262.19 448.93,261.56 448.32,261.05C447.71,260.55 447.05,260.17 446.34,259.92C445.63,259.66 444.89,259.53 444.11,259.53C443.23,259.53 442.47,259.65 441.82,259.9C441.17,260.15 440.67,260.49 440.3,260.94C439.93,261.39 439.75,261.93 439.75,262.57C439.75,263.06 439.86,263.49 440.08,263.87C440.3,264.25 440.61,264.58 441.01,264.88C441.41,265.17 441.93,265.43 442.57,265.65C443.21,265.87 443.93,266.07 444.73,266.23C446.07,266.5 447.28,266.86 448.35,267.31C449.42,267.76 450.34,268.3 451.1,268.92C451.86,269.54 452.43,270.25 452.82,271.04C453.21,271.83 453.41,272.72 453.41,273.69C453.41,275.37 453.01,276.82 452.22,278.03C451.43,279.24 450.31,280.17 448.87,280.81C447.43,281.45 445.75,281.78 443.82,281.78L443.84,281.79Z" style="fill:rgb(255,88,93);fill-rule:nonzero;"/>
            <path d="M458.66,281.43L458.66,255.81L463.42,255.81L463.42,281.43L458.66,281.43ZM460.64,270.89L460.64,266.42L477.4,266.42L477.4,270.89L460.64,270.89ZM475.1,281.43L475.1,255.81L479.86,255.81L479.86,281.43L475.1,281.43Z" style="fill:rgb(255,88,93);fill-rule:nonzero;"/>
            <path d="M486.77,281.43L486.77,255.81L497.42,255.81C498.88,255.81 500.21,256.17 501.39,256.87C502.57,257.58 503.52,258.54 504.23,259.76C504.94,260.98 505.29,262.35 505.29,263.86C505.29,265.37 504.93,266.78 504.23,268.01C503.52,269.24 502.58,270.23 501.39,270.96C500.21,271.69 498.88,272.06 497.42,272.06L491.53,272.06L491.53,281.43L486.77,281.43ZM491.53,267.67L497.09,267.67C497.7,267.67 498.26,267.5 498.76,267.16C499.26,266.82 499.66,266.37 499.97,265.81C500.28,265.25 500.43,264.61 500.43,263.91C500.43,263.21 500.28,262.57 499.97,262.02C499.66,261.47 499.26,261.03 498.76,260.7C498.26,260.37 497.7,260.2 497.09,260.2L491.53,260.2L491.53,267.67Z" style="fill:rgb(255,88,93);fill-rule:nonzero;"/>
            <path d="M507.49,281.43L517.48,255.81L521.95,255.81L531.87,281.43L526.93,281.43L521.44,266.86C521.32,266.57 521.15,266.1 520.95,265.47C520.74,264.84 520.52,264.15 520.27,263.4C520.02,262.65 519.8,261.96 519.61,261.31C519.42,260.66 519.27,260.19 519.17,259.9L520.09,259.86C519.94,260.35 519.77,260.9 519.58,261.51C519.39,262.12 519.18,262.75 518.96,263.41C518.74,264.07 518.53,264.7 518.32,265.31C518.11,265.92 517.92,266.47 517.75,266.96L512.26,281.42L507.5,281.42L507.49,281.43ZM512.03,275.57L513.68,271.43L525.36,271.43L527.12,275.57L512.03,275.57Z" style="fill:rgb(255,88,93);fill-rule:nonzero;"/>
            <path d="M542.71,281.44L542.71,268.66L542.97,270.45L532.61,255.81L538.17,255.81L546.08,267.16L544.36,267.05L551.5,255.81L556.84,255.81L546.92,270.86L547.47,268.37L547.47,281.44L542.71,281.44Z" style="fill:rgb(255,88,93);fill-rule:nonzero;"/>
            <path d="M582.06,281.79C580.2,281.79 578.51,281.47 576.97,280.84C575.43,280.2 574.1,279.3 572.98,278.11C571.86,276.93 570.98,275.52 570.36,273.9C569.74,272.28 569.43,270.5 569.43,268.57C569.43,266.64 569.76,264.99 570.42,263.41C571.08,261.82 571.99,260.43 573.17,259.24C574.34,258.04 575.71,257.12 577.27,256.46C578.83,255.8 580.53,255.47 582.36,255.47C583.61,255.47 584.81,255.65 585.98,256.02C587.15,256.39 588.23,256.89 589.2,257.54C590.18,258.19 590.99,258.94 591.65,259.79L588.61,263.12C587.97,262.46 587.32,261.91 586.65,261.45C585.98,261 585.28,260.66 584.56,260.42C583.84,260.19 583.1,260.07 582.34,260.07C581.22,260.07 580.16,260.28 579.17,260.69C578.18,261.1 577.33,261.69 576.61,262.45C575.89,263.21 575.32,264.1 574.91,265.14C574.5,266.18 574.29,267.33 574.29,268.6C574.29,269.87 574.49,271.06 574.9,272.11C575.3,273.16 575.87,274.06 576.62,274.82C577.36,275.57 578.25,276.16 579.29,276.56C580.33,276.96 581.47,277.16 582.71,277.16C583.52,277.16 584.3,277.05 585.05,276.83C585.81,276.61 586.51,276.3 587.16,275.9C587.8,275.5 588.4,275.03 588.94,274.49L591.28,278.26C590.7,278.92 589.91,279.52 588.94,280.05C587.96,280.59 586.87,281.01 585.66,281.31C584.45,281.62 583.25,281.77 582.06,281.77L582.06,281.79Z" style="fill:rgb(255,88,93);fill-rule:nonzero;"/>
            <path d="M607.27,281.79C605.44,281.79 603.74,281.46 602.18,280.8C600.62,280.14 599.26,279.22 598.1,278.04C596.94,276.86 596.04,275.46 595.41,273.85C594.77,272.24 594.46,270.48 594.46,268.58C594.46,266.68 594.78,264.92 595.41,263.31C596.04,261.7 596.94,260.3 598.1,259.12C599.26,257.94 600.62,257.01 602.18,256.36C603.74,255.7 605.44,255.37 607.27,255.37C609.1,255.37 610.83,255.7 612.39,256.36C613.95,257.02 615.31,257.95 616.45,259.14C617.6,260.34 618.49,261.73 619.12,263.33C619.75,264.93 620.07,266.68 620.07,268.58C620.07,270.48 619.75,272.2 619.12,273.81C618.48,275.42 617.59,276.82 616.45,278.02C615.3,279.22 613.95,280.14 612.39,280.8C610.83,281.46 609.12,281.79 607.27,281.79ZM607.27,277.25C608.44,277.25 609.51,277.04 610.47,276.61C611.43,276.18 612.27,275.57 612.98,274.78C613.69,273.99 614.24,273.06 614.65,272.02C615.05,270.97 615.25,269.82 615.25,268.58C615.25,267.34 615.05,266.19 614.65,265.14C614.25,264.09 613.69,263.17 612.98,262.38C612.27,261.59 611.44,260.98 610.47,260.55C609.5,260.12 608.44,259.91 607.27,259.91C606.1,259.91 605.06,260.12 604.09,260.55C603.11,260.98 602.27,261.58 601.56,262.36C600.85,263.14 600.3,264.06 599.91,265.11C599.52,266.16 599.32,267.32 599.32,268.59C599.32,269.86 599.51,270.99 599.91,272.05C600.3,273.11 600.85,274.03 601.56,274.81C602.27,275.59 603.11,276.2 604.09,276.62C605.06,277.05 606.13,277.26 607.27,277.26L607.27,277.25Z" style="fill:rgb(255,88,93);fill-rule:nonzero;"/>
            <path d="M625.25,281.43L625.25,255.81L629.75,255.81L639.08,271L636.44,270.96L645.88,255.8L650.16,255.8L650.16,281.42L645.44,281.42L645.44,271.79C645.44,269.59 645.5,267.62 645.61,265.86C645.72,264.1 645.91,262.36 646.18,260.63L646.76,262.2L638.82,274.46L636.4,274.46L628.71,262.31L629.22,260.63C629.49,262.27 629.68,263.94 629.79,265.66C629.9,267.38 629.96,269.42 629.96,271.79L629.96,281.42L625.24,281.42L625.25,281.43Z" style="fill:rgb(255,88,93);fill-rule:nonzero;"/>
            <path d="M657.06,281.43L657.06,255.81L667.71,255.81C669.17,255.81 670.5,256.17 671.68,256.87C672.86,257.58 673.81,258.54 674.52,259.76C675.23,260.98 675.58,262.35 675.58,263.86C675.58,265.37 675.22,266.78 674.52,268.01C673.81,269.24 672.87,270.23 671.68,270.96C670.49,271.69 669.17,272.06 667.71,272.06L661.82,272.06L661.82,281.43L657.06,281.43ZM661.82,267.67L667.38,267.67C667.99,267.67 668.55,267.5 669.05,267.16C669.55,266.82 669.95,266.37 670.26,265.81C670.57,265.25 670.72,264.61 670.72,263.91C670.72,263.21 670.57,262.57 670.26,262.02C669.95,261.47 669.55,261.03 669.05,260.7C668.55,260.37 667.99,260.2 667.38,260.2L661.82,260.2L661.82,267.67Z" style="fill:rgb(255,88,93);fill-rule:nonzero;"/>
            <path d="M677.77,281.43L687.76,255.81L692.23,255.81L702.15,281.43L697.21,281.43L691.72,266.86C691.6,266.57 691.43,266.1 691.23,265.47C691.02,264.84 690.8,264.15 690.55,263.4C690.3,262.65 690.08,261.96 689.89,261.31C689.7,260.66 689.55,260.19 689.45,259.9L690.37,259.86C690.22,260.35 690.05,260.9 689.86,261.51C689.67,262.12 689.46,262.75 689.24,263.41C689.02,264.07 688.81,264.7 688.6,265.31C688.39,265.92 688.2,266.47 688.03,266.96L682.54,281.42L677.78,281.42L677.77,281.43ZM682.31,275.57L683.96,271.43L695.64,271.43L697.4,275.57L682.31,275.57Z" style="fill:rgb(255,88,93);fill-rule:nonzero;"/>
            <path d="M706.18,281.43L706.18,255.81L710.46,255.81L725.32,275.83L724.51,275.98C724.41,275.3 724.33,274.6 724.25,273.88C724.18,273.16 724.11,272.41 724.05,271.63C723.99,270.85 723.94,270.03 723.91,269.18C723.87,268.33 723.84,267.43 723.82,266.49C723.79,265.55 723.78,264.56 723.78,263.51L723.78,255.82L728.5,255.82L728.5,281.44L724.14,281.44L709.21,261.71L710.16,261.45C710.28,262.82 710.39,263.98 710.47,264.95C710.55,265.92 710.62,266.74 710.67,267.44C710.72,268.14 710.76,268.72 710.8,269.18C710.84,269.64 710.86,270.07 710.87,270.44C710.88,270.82 710.89,271.18 710.89,271.52L710.89,281.44L706.17,281.44L706.18,281.43Z" style="fill:rgb(255,88,93);fill-rule:nonzero;"/>
            <path d="M742.2,281.44L742.2,268.66L742.46,270.45L732.1,255.81L737.66,255.81L745.57,267.16L743.85,267.05L750.99,255.81L756.33,255.81L746.41,270.86L746.96,268.37L746.96,281.44L742.2,281.44Z" style="fill:rgb(255,88,93);fill-rule:nonzero;"/>
        </g>
        <path d="M688.22,171.02C682.59,169.24 675.38,167.66 666.59,166.28C657.8,164.77 651.32,163.16 647.13,161.44C642.94,159.72 640.85,156.81 640.85,152.69C640.85,148.98 642.81,146 646.72,143.73C650.63,141.46 656.36,140.33 663.92,140.33C673.73,140.33 682.72,142.27 690.88,146.15C693.54,147.41 696.01,149.04 698.27,150.93L699.24,151.74L699.24,128.05C695.72,126.03 693.84,124.84 686.65,122.64C679.24,120.39 671.68,119.52 664.13,119.52C649.3,119.52 637.53,122.64 628.81,128.89C620.09,135.14 615.73,143.48 615.73,153.91C615.73,161.88 617.82,168.09 622.01,172.55C626.2,177.01 631.14,180.14 636.84,181.92C642.53,183.71 649.92,185.29 658.98,186.66C667.63,188.03 673.91,189.48 677.82,190.99C681.73,192.5 683.69,195.18 683.69,199.02C683.69,207.12 676,211.17 660.63,211.17C653.9,211.17 647.07,210.18 640.14,208.18C633.21,206.19 626.46,202.74 621.51,199.45L621.51,224.33C624.68,225.66 628.93,227.61 632.83,228.67C641.34,231 650.06,232.17 658.98,232.17C674.35,232.17 686.51,229.08 695.43,222.9C704.35,216.72 708.81,208.48 708.81,198.19C708.81,190.36 706.79,184.32 702.74,180.07C698.69,175.81 693.85,172.79 688.22,171.01L688.22,171.02Z" style="fill:rgb(255,88,93);fill-rule:nonzero;"/>
        <path d="M597.93,176.37C597.93,165.11 595.56,155.19 590.82,146.61C586.08,138.03 579.49,131.37 571.05,126.63C562.61,121.89 553.03,119.52 542.32,119.52C531.61,119.52 521.73,121.92 513.08,126.73C504.43,131.54 497.67,138.23 492.8,146.81C487.93,155.39 485.49,165.03 485.49,175.74C485.49,186.45 487.99,196.3 493.01,204.88C498.02,213.46 505.13,220.15 514.32,224.96C523.52,229.77 534.16,232.17 546.24,232.17C546.64,232.17 547.07,232.17 547.49,232.15C547.79,232.15 548.08,232.17 548.38,232.17C557.31,232.17 566.02,231 574.53,228.67C578.42,227.6 582.67,225.65 585.85,224.33L585.85,199.45C585.85,199.45 585.76,199.5 585.73,199.53L585.73,199.44C573.33,208.13 556.74,210.35 546.86,210.35C536.98,210.35 529.46,207.98 523.07,203.25C516.69,198.51 512.74,192.1 511.23,183.99L597.52,183.99C597.79,180.69 597.93,178.16 597.93,176.37ZM511.02,166.9C512.26,158.8 515.72,152.31 521.42,147.44C527.11,142.57 534.09,140.13 542.32,140.13C550.55,140.13 557.7,142.6 563.33,147.54C568.96,152.48 572.32,158.94 573.42,166.9L511.02,166.9Z" style="fill:rgb(255,88,93);fill-rule:nonzero;"/>
        <path d="M221.03,45.55L96.71,45.55C95.21,45.55 93.82,46.35 93.07,47.65L30.91,155.31C30.16,156.61 30.16,158.21 30.91,159.51L93.07,267.17C93.82,268.47 95.21,269.27 96.71,269.27L133.78,269.27C137.01,269.27 139.03,265.77 137.42,262.97L126.7,244.41C125.95,243.11 124.56,242.31 123.06,242.31L112.27,242.31C110.77,242.31 109.38,241.51 108.63,240.21L62.03,159.5C61.28,158.2 61.28,156.6 62.03,155.3L108.63,74.59C109.38,73.29 110.77,72.49 112.27,72.49L205.46,72.49C206.96,72.49 208.35,73.29 209.1,74.59L255.7,155.3C256.45,156.6 256.45,158.2 255.7,159.5L219.3,222.54C217.68,225.34 213.64,225.34 212.03,222.54L197,196.51C196.25,195.21 196.25,193.61 197,192.31L215.94,159.5C216.69,158.2 216.69,156.6 215.94,155.3L189.22,109.02C188.47,107.72 187.08,106.92 185.58,106.92L121.54,106.92C118.31,106.92 116.29,110.42 117.9,113.22L128.62,131.78C129.37,133.08 130.76,133.88 132.26,133.88L170.02,133.88C171.52,133.88 172.91,134.68 173.66,135.98L184.81,155.3C185.56,156.6 185.56,158.2 184.81,159.5L172.43,180.95L165.93,192.2C165.18,193.5 165.18,195.1 165.93,196.39L206.66,267.15C207.41,268.45 208.8,269.25 210.3,269.25L221.03,269.25C222.53,269.25 223.92,268.45 224.67,267.15L231.23,255.79L286.83,159.49C287.58,158.19 287.58,156.59 286.83,155.29L224.67,47.63C223.92,46.33 222.53,45.53 221.03,45.53L221.03,45.55Z" style="fill:rgb(255,88,93);fill-rule:nonzero;"/>
    </g>
</svg>
